<?xml version="1.0" encoding="iso-8859-1"?>
<!-- Generator: Adobe Illustrator 18.0.0, SVG Export Plug-In . SVG Version: 6.00 Build 0)  -->
<!DOCTYPE svg PUBLIC "-//W3C//DTD SVG 1.1//EN" "http://www.w3.org/Graphics/SVG/1.1/DTD/svg11.dtd">
<svg version="1.1" id="Capa_1" xmlns="http://www.w3.org/2000/svg" xmlns:xlink="http://www.w3.org/1999/xlink" x="0px" y="0px"
	 viewBox="0 0 498.281 498.281" style="enable-background:new 0 0 498.281 498.281;" xml:space="preserve">
<g id="XMLID_293_">
	<path id="XMLID_298_" d="M171.057,165.49c-5.503-14.221-19.228-24.352-35.395-24.352h-25.625c-16.168,0-29.895,10.13-35.395,24.352
		L5.121,268.998c-6.258,9.326-3.775,21.97,5.541,28.226c9.215,6.208,21.888,3.863,28.227-5.542l33.11-49.3v10.627v4.876
		l-18.095,71.41c-0.535,2.134-0.061,4.4,1.289,6.137c1.352,1.739,3.439,2.751,5.624,2.751h11.182v114.413
		c0,11.231,9.099,20.34,20.341,20.34s20.34-9.108,20.34-20.34V338.182h20.34v114.413c0,11.231,9.098,20.34,20.34,20.34
		c11.242,0,20.34-9.108,20.34-20.34V338.182h11.184c2.184,0,4.271-1.012,5.621-2.751c1.351-1.737,1.828-4.003,1.289-6.137
		l-18.094-71.41v-4.876v-10.627l33.111,49.3c6.298,9.356,18.949,11.778,28.227,5.542c9.314-6.256,11.799-18.899,5.543-28.226
		L171.057,165.49z" fill="#fff"/>
	<path id="XMLID_297_" d="M122.848,121.434c26.915,0,48.745-21.82,48.745-48.735c0-26.915-21.83-48.734-48.745-48.734
		c-26.913,0-48.745,21.82-48.745,48.734C74.103,99.614,95.935,121.434,122.848,121.434z" fill="#fff"/>
	<path id="XMLID_296_" d="M52.078,98.978c11.002,0,19.921-8.918,19.921-19.922c0-10.995-8.919-19.914-19.921-19.914
		c-9.357,0-23.996,15.076-44.635,5.383c-2.045-0.963-4.47-0.506-6.018,1.132c-1.551,1.639-1.867,4.082-0.797,6.068
		C7.523,84.419,23.016,98.978,52.078,98.978z" fill="#fff"/>
	<path id="XMLID_295_" d="M494.828,270.379l-69.522-103.518c-5.502-14.212-19.228-24.342-35.396-24.342h-25.623
		c-16.168,0-29.893,10.13-35.395,24.342l-69.523,103.518c-6.258,9.326-3.773,21.969,5.543,28.226
		c9.215,6.208,21.888,3.863,28.227-5.543l33.111-49.3c0,321.774,0-123.182,0,210.214c0,11.232,9.096,20.34,20.34,20.34
		c11.24,0,20.34-9.108,20.34-20.34V339.563h20.34v114.413c0,11.232,9.098,20.34,20.34,20.34c11.242,0,20.341-9.108,20.341-20.34
		c0-317.645,0,109.435,0-210.214l33.11,49.3c6.297,9.356,18.951,11.779,28.225,5.543
		C498.601,292.349,501.086,279.705,494.828,270.379z" fill="#fff"/>
	<path id="XMLID_294_" d="M377.1,122.814c26.913,0,48.743-21.819,48.743-48.734c0-26.914-21.83-48.734-48.743-48.734
		c-26.915,0-48.746,21.82-48.746,48.734C328.354,100.995,350.185,122.814,377.1,122.814z" fill="#fff"/>
</g>
<g>
</g>
<g>
</g>
<g>
</g>
<g>
</g>
<g>
</g>
<g>
</g>
<g>
</g>
<g>
</g>
<g>
</g>
<g>
</g>
<g>
</g>
<g>
</g>
<g>
</g>
<g>
</g>
<g>
</g>
</svg>
